<?xml version="1.0" encoding="UTF-8" standalone="no"?>
<!-- Created with Inkscape (http://www.inkscape.org/) -->

<svg
   xmlns:dc="http://purl.org/dc/elements/1.1/"
   xmlns:cc="http://creativecommons.org/ns#"
   xmlns:rdf="http://www.w3.org/1999/02/22-rdf-syntax-ns#"
   xmlns:svg="http://www.w3.org/2000/svg"
   xmlns="http://www.w3.org/2000/svg"
   xmlns:sodipodi="http://sodipodi.sourceforge.net/DTD/sodipodi-0.dtd"
   xmlns:inkscape="http://www.inkscape.org/namespaces/inkscape"
   width="200mm"
   height="100mm"
   viewBox="0 0 200 100"
   version="1.1"
   id="svg1020"
   inkscape:version="0.92.3 (2405546, 2018-03-11)"
   sodipodi:docname="logosj.svg">
  <defs
     id="defs1014" />
  <sodipodi:namedview
     id="base"
     pagecolor="#ffffff"
     bordercolor="#666666"
     borderopacity="1.0"
     inkscape:pageopacity="0.0"
     inkscape:pageshadow="2"
     inkscape:zoom="1.979899"
     inkscape:cx="357.19947"
     inkscape:cy="81.800959"
     inkscape:document-units="mm"
     inkscape:current-layer="g100"
     showgrid="false"
     inkscape:window-width="3200"
     inkscape:window-height="1677"
     inkscape:window-x="0"
     inkscape:window-y="49"
     inkscape:window-maximized="1" />
  <metadata
     id="metadata1017">
    <rdf:RDF>
      <cc:Work
         rdf:about="">
        <dc:format>image/svg+xml</dc:format>
        <dc:type
           rdf:resource="http://purl.org/dc/dcmitype/StillImage" />
        <dc:title />
      </cc:Work>
    </rdf:RDF>
  </metadata>
  <g
     inkscape:label="Layer 1"
     inkscape:groupmode="layer"
     id="layer1"
     transform="translate(0,-197)">
    <path
       style="fill:#894b00;fill-opacity:1;stroke:none;stroke-width:0.2727049;stroke-linecap:butt;stroke-linejoin:miter;stroke-miterlimit:4;stroke-dasharray:none;stroke-opacity:1"
       d="M 0.78287238,197.29076 H 199.95113 l -17.09526,89.14955 -84.574934,10.1765 -79.486686,-10.03898 z"
       id="path1860-7"
       inkscape:connector-curvature="0" />
    <path
       style="fill:#e4a126;fill-opacity:1;stroke:none;stroke-width:0.25134668;stroke-linecap:butt;stroke-linejoin:miter;stroke-miterlimit:4;stroke-dasharray:none;stroke-opacity:1"
       d="M 5.8835938,202.0839 H 194.34648 l -16.17638,80.03387 -80.028998,9.13594 -75.214248,-9.01248 z"
       id="path1860"
       inkscape:connector-curvature="0" />
    <g
       transform="matrix(0.32967589,0,0,0.31241306,22.952331,205.20557)"
       id="g100">
      <g
         id="g50"
         transform="matrix(2.1999588,0,0,1,-1.4334731,0)">
        <g
           transform="translate(3.8698802)"
           id="g48">
          <g
             transform="scale(0.30959041,2.3219281)"
             id="g46">
            <path
               style="fill:#323330;fill-opacity:1"
               inkscape:connector-curvature="0"
               d="M 0,0 V 100 H 100 V 80 H 43.937819 L 45.077715,0 H 0"
               id="path44"
               sodipodi:nodetypes="ccccccc" />
          </g>
        </g>
      </g>
      <g
         transform="matrix(2.5368809,0,0,1,67.447655,0)"
         id="g62">
        <g
           transform="translate(3.8698802,56.428884)"
           id="g60">
          <g
             transform="scale(0.30959041,1.7576393)"
             id="g58">
            <g
               id="g56">
              <circle
                 style="fill:#323330;fill-opacity:1"
                 cx="50"
                 cy="50"
                 r="50"
                 id="circle52" />
              <ellipse
                 style="fill:#e4a126;fill-opacity:1;stroke-width:0.67904413"
                 cx="50"
                 cy="50"
                 id="circle54"
                 rx="18.7778"
                 ry="25.144978" />
            </g>
          </g>
        </g>
      </g>
      <g
         transform="matrix(2.6042654,0,0,1,147.10725,0)"
         id="g70">
        <g
           transform="translate(3.8698802,56.428884)"
           id="g68">
          <g
             transform="scale(0.30959041,1.7576393)"
             id="g66">
            <path
               style="fill:#323330;fill-opacity:1"
               inkscape:connector-curvature="0"
               d="M 100,28 C 100,-13 0,-13 0,50 0,113 100,113 100,72 V 48 H 55 V 72 H 70.475172 C 58.053392,84.935313 31.873227,82.289625 35.777578,50 39.709047,17.486105 61.24652,21.7148 67.586383,29.636031 L 100,28"
               id="path64"
               sodipodi:nodetypes="cssccccscc" />
          </g>
        </g>
      </g>
      <g
         transform="matrix(2.5593421,0,0,1,227.89685,0)"
         id="g82">
        <g
           transform="translate(3.8698802,56.428884)"
           id="g80">
          <g
             transform="scale(0.30959041,1.7576393)"
             id="g78">
            <g
               id="g76">
              <circle
                 style="fill:#323330;fill-opacity:1"
                 cx="50"
                 cy="50"
                 r="50"
                 id="circle72" />
            </g>
          </g>
        </g>
      </g>
      <g
         transform="matrix(1.1831632,0,0,1,153.87081,0)"
         id="g90">
        <g
           transform="translate(3.8698802,56.428884)"
           id="g88">
          <g
             transform="matrix(0.63936298,0,0,1.7576393,136.27635,0)"
             id="g86">
            <path
               style="fill:#e4a126;fill-opacity:1;stroke:#323330;stroke-width:24.77865601;stroke-miterlimit:4;stroke-dasharray:none;stroke-opacity:1"
               inkscape:connector-curvature="0"
               d="M 82.637674,28.646663 A 35.122517,18.113846 0 1 0 42.614341,46.760509 34.305714,20.830923 0 1 1 14.843049,66.68574"
               id="path84" />
          </g>
        </g>
      </g>
      <ellipse
         style="fill:#e4a126;fill-opacity:1;stroke-width:0.79782325"
         cx="275.33359"
         cy="146.25008"
         id="circle54-0"
         rx="14.747971"
         ry="44.195801" />
      <path
         style="fill:#ffd255;fill-opacity:1;stroke:none;stroke-width:0.82572931;stroke-linecap:butt;stroke-linejoin:miter;stroke-miterlimit:4;stroke-dasharray:none;stroke-opacity:1"
         d="M 392.14774,-6.2269922 394.1745,248.71212 463.48969,240.15711 510.51051,-5.7992422 Z"
         id="path843"
         inkscape:connector-curvature="0"
         sodipodi:nodetypes="ccccc" />
      <g
         transform="matrix(2.4919579,0,0,1,386.17893,0)"
         id="g98"
         style="fill:#000000;fill-opacity:1">
        <g
           transform="translate(3.8698802)"
           id="g96"
           style="fill:#000000;fill-opacity:1">
          <g
             transform="scale(0.30959041,2.3219281)"
             id="g94"
             style="fill:#000000;fill-opacity:1">
            <path
               style="fill:#000000;fill-opacity:1"
               inkscape:connector-curvature="0"
               d="m 0,60 c 0,51 100,51 100,0 V 0 H 64.433566 L 63.930403,60.501545 C 70.450304,84.693998 29.706702,85.761862 33.55378,60.167182"
               id="path92"
               sodipodi:nodetypes="cscccc" />
          </g>
        </g>
      </g>
    </g>
  </g>
</svg>
