<?xml version="1.0" standalone="yes"?>
<svg xmlns="http://www.w3.org/2000/svg" viewBox="0 0 381.57895841746824 296.5580498119545"><g transform="translate(80,278.49625007211563)"><g transform="rotate(-90)"><text x="0" y="28.434587507932722" font-size="18" text-anchor="end">1</text><text x="0" y="71.51729585328533" font-size="18" text-anchor="end">2</text><text x="0" y="114.60000419863795" font-size="18" text-anchor="end">3</text><text x="0" y="157.68271254399056" font-size="18" text-anchor="end">4</text><text x="0" y="200.76542088934315" font-size="18" text-anchor="end">5</text><text x="0" y="243.84812923469576" font-size="18" text-anchor="end">6</text><text x="0" y="286.9308375800484" font-size="18" text-anchor="end">7</text></g></g><g transform="translate(0,10)"><rect height="258.49625007211563" width="4" x="66" y="0" fill="#000000"></rect><g transform="translate(0,258.49625007211563)"><text x="50" text-anchor="end" y="4" font-size="18">0</text><rect x="55" width="15" height="4" y="-2" fill="#000000"></rect></g><g transform="translate(0,158.49625007211563)"><text x="50" text-anchor="end" y="4" font-size="18">1</text><rect x="55" width="15" height="4" y="-2" fill="#000000"></rect></g><g transform="translate(0,58.49625007211563)"><text x="50" text-anchor="end" y="4" font-size="18">2</text><rect x="55" width="15" height="4" y="-2" fill="#000000"></rect></g><g transform="rotate(-90)"><text y="20" x="-129.24812503605781" text-anchor="middle" font-size="18">bits</text></g></g><g transform="translate(80,10)"><g transform="translate(0,0)"><g transform="translate(0,0)"><g transform="scale(0.43082708345352605,2.584962500721156)"><path fill="#888800ff" d="M 0 0 L 0 20 L 35 20 L 35 100
         L 65 100 L 65 20 L 100 20
         L 100 0 L 0 0"></path></g></g></g><g transform="translate(43.08270834535261,0)"><g transform="translate(0,0)"><g transform="scale(0.43082708345352605,2.584962500721156)"><path fill="#888800ff" d="M 0 0 L 0 20 L 35 20 L 35 100
         L 65 100 L 65 20 L 100 20
         L 100 0 L 0 0"></path></g></g></g><g transform="translate(86.16541669070521,0)"><g transform="translate(0,228.075892884121)"><g transform="scale(0.43082708345352605,0.3042035718799463)"><g><path fill="#880088ff" d="M 0 100 L 33 0 L 66 0 L 100 100 L 75 100
         L 66 75 L 33 75 L 25 100 L 0 100"></path><path fill="#ffffff" d="M 41 55 L 50 25 L 58 55 L 41 55"></path></g></g></g><g transform="translate(0,197.65553569612638)"><g transform="scale(0.43082708345352605,0.3042035718799463)"><path fill="#000088ff" d="M 100 28 C 100 -13 0 -13 0 50 C 0 113 100 113 100 72
         L 100 48 L 55 48 L 55 72 L 75 72 C 75 90 30 90 30 50
         C 30 10 75 5 75 28 L 100 28"></path></g></g><g transform="translate(0,157.09505944546686)"><g transform="scale(0.43082708345352605,0.40560476250659505)"><path fill="#888800ff" d="M 0 0 L 0 20 L 35 20 L 35 100
         L 65 100 L 65 20 L 100 20
         L 100 0 L 0 0"></path></g></g></g><g transform="translate(129.24812503605781,0)"><g transform="translate(0,0)"><g transform="scale(0.43082708345352605,2.584962500721156)"><path fill="#ff0000ff" d="M 0 0 L 20 0 L 50 35 L 80 0 L 100 0 L 100 100
               L 80 100 L 80 30 L 50 65 L 20 30 L 20 100
               L 0 100 L 0 0"></path></g></g></g><g transform="translate(172.33083338141043,0)"><g transform="translate(0,0)"><g transform="scale(0.43082708345352605,2.584962500721156)"><path fill="#008888ff" d="M 0 0 L 20 0 L 30 70 L 50 30 L 70 70 L 80 0
               L 100 0 L 90 100 L 70 100 L 50 65 L 30 100
               L 10 100 L 0 0"></path></g></g></g><g transform="translate(215.41354172676304,0)"><g transform="translate(0,193.9357738214561)"><g transform="scale(0.43082708345352605,0.6456047625065952)"><path fill="#888800ff" d="M 0 0 L 0 20 L 35 20 L 35 100
         L 65 100 L 65 20 L 100 20
         L 100 0 L 0 0"></path></g></g><g transform="translate(0,97.09505944546686)"><g transform="scale(0.43082708345352605,0.9684071437598926)"><path fill="#880000ff" d="M 100 28 C 100 -13 0 -13 0 50
         C 0 113 100 113 100 72 L 75 72
         C 75 90 30 90 30 50 C 30 10 75 10 75 28
         L 100 28"></path></g></g></g><g transform="translate(258.49625007211563,0)"><g transform="translate(0,0)"><g transform="scale(0.43082708345352605,2.584962500721156)"><g><path fill="#880088ff" d="M 0 100 L 33 0 L 66 0 L 100 100 L 75 100
         L 66 75 L 33 75 L 25 100 L 0 100"></path><path fill="#ffffff" d="M 41 55 L 50 25 L 58 55 L 41 55"></path></g></g></g></g></g></svg>
