<?xml version="1.0" standalone="yes"?>
<svg xmlns="http://www.w3.org/2000/svg" viewBox="0 0 1100 420"><rect x="600" width="100" height="420" fill="#bbbbbb"></rect><g transform="translate(300,0)"><g transform="translate(0,0)"><g transform="translate(0,195)"><g transform="scale(1,0.05)"><g><path fill="#ff0000ff" d="M 0 100 L 33 0 L 66 0 L 100 100 L 75 100
         L 66 75 L 33 75 L 25 100 L 0 100"></path><path fill="#ffffff" d="M 41 55 L 50 25 L 58 55 L 41 55"></path></g></g></g><g transform="translate(0,190)"><g transform="scale(1,0.05)"><path fill="#0000ffff" d="M 100 28 C 100 -13 0 -13 0 50
         C 0 113 100 113 100 72 L 75 72
         C 75 90 30 90 30 50 C 30 10 75 10 75 28
         L 100 28"></path></g></g></g><g transform="translate(100,0)"><g transform="translate(0,170)"><g transform="scale(1,0.3)"><path fill="#ffa500ff" d="M 100 28 C 100 -13 0 -13 0 50 C 0 113 100 113 100 72
         L 100 48 L 55 48 L 55 72 L 75 72 C 75 90 30 90 30 50
         C 30 10 75 5 75 28 L 100 28"></path></g></g><g transform="translate(0,100)"><g transform="scale(1,0.7)"><path fill="#228b22ff" d="M 0 0 L 0 20 L 35 20 L 35 100
         L 65 100 L 65 20 L 100 20
         L 100 0 L 0 0"></path></g></g></g><g transform="translate(200,0)"><g transform="translate(0,195)"><g transform="scale(1,0.05)"><path fill="#ffa500ff" d="M 100 28 C 100 -13 0 -13 0 50 C 0 113 100 113 100 72
         L 100 48 L 55 48 L 55 72 L 75 72 C 75 90 30 90 30 50
         C 30 10 75 5 75 28 L 100 28"></path></g></g><g transform="translate(0,190)"><g transform="scale(1,0.05)"><path fill="#228b22ff" d="M 0 0 L 0 20 L 35 20 L 35 100
         L 65 100 L 65 20 L 100 20
         L 100 0 L 0 0"></path></g></g></g><g transform="translate(300,0)"><g transform="translate(0,0)"><g transform="scale(1,2)"><path fill="#228b22ff" d="M 0 0 L 0 20 L 35 20 L 35 100
         L 65 100 L 65 20 L 100 20
         L 100 0 L 0 0"></path></g></g></g><g transform="translate(400,0)"><g transform="translate(0,140)"><g transform="scale(1,0.6)"><g><path fill="#ff0000ff" d="M 0 100 L 33 0 L 66 0 L 100 100 L 75 100
         L 66 75 L 33 75 L 25 100 L 0 100"></path><path fill="#ffffff" d="M 41 55 L 50 25 L 58 55 L 41 55"></path></g></g></g><g transform="translate(0,60)"><g transform="scale(1,0.8)"><path fill="#228b22ff" d="M 0 0 L 0 20 L 35 20 L 35 100
         L 65 100 L 65 20 L 100 20
         L 100 0 L 0 0"></path></g></g></g><g transform="translate(500,0)"><g transform="translate(0,0)"><g transform="scale(1,2)"><path fill="#0000ffff" d="M 100 28 C 100 -13 0 -13 0 50
         C 0 113 100 113 100 72 L 75 72
         C 75 90 30 90 30 50 C 30 10 75 10 75 28
         L 100 28"></path></g></g></g><g transform="translate(600,0)"><g transform="translate(0,120)"><g transform="scale(1,0.8)"><g><path fill="#ff0000ff" d="M 0 100 L 33 0 L 66 0 L 100 100 L 75 100
         L 66 75 L 33 75 L 25 100 L 0 100"></path><path fill="#ffffff" d="M 41 55 L 50 25 L 58 55 L 41 55"></path></g></g></g><g transform="translate(0,40)"><g transform="scale(1,0.8)"><path fill="#0000ffff" d="M 100 28 C 100 -13 0 -13 0 50
         C 0 113 100 113 100 72 L 75 72
         C 75 90 30 90 30 50 C 30 10 75 10 75 28
         L 100 28"></path></g></g></g><g transform="translate(700,0)"><g transform="translate(0,190)"><g transform="scale(1,0.1)"><path fill="#ffa500ff" d="M 100 28 C 100 -13 0 -13 0 50 C 0 113 100 113 100 72
         L 100 48 L 55 48 L 55 72 L 75 72 C 75 90 30 90 30 50
         C 30 10 75 5 75 28 L 100 28"></path></g></g></g></g><g transform="translate(300, 220)"><g transform="translate(0,0)"><g transform="translate(0,0)"><g transform="scale(1,2)"><g><path fill="#ff0000ff" d="M 0 100 L 33 0 L 66 0 L 100 100 L 75 100
         L 66 75 L 33 75 L 25 100 L 0 100"></path><path fill="#ffffff" d="M 41 55 L 50 25 L 58 55 L 41 55"></path></g></g></g></g><g transform="translate(100,0)"><g transform="translate(0,0)"><g transform="scale(1,2)"><path fill="#228b22ff" d="M 0 0 L 0 20 L 35 20 L 35 100
         L 65 100 L 65 20 L 100 20
         L 100 0 L 0 0"></path></g></g></g><g transform="translate(200,0)"><g transform="translate(0,0)"><g transform="scale(1,2)"><g><path fill="#ff0000ff" d="M 0 100 L 33 0 L 66 0 L 100 100 L 75 100
         L 66 75 L 33 75 L 25 100 L 0 100"></path><path fill="#ffffff" d="M 41 55 L 50 25 L 58 55 L 41 55"></path></g></g></g></g><g transform="translate(300,0)"><g transform="translate(0,0)"><g transform="scale(1,2)"><path fill="#0000ffff" d="M 100 28 C 100 -13 0 -13 0 50
         C 0 113 100 113 100 72 L 75 72
         C 75 90 30 90 30 50 C 30 10 75 10 75 28
         L 100 28"></path></g></g></g><g transform="translate(400,0)"><g transform="translate(0,0)"><g transform="scale(1,2)"><path fill="#228b22ff" d="M 0 0 L 0 20 L 35 20 L 35 100
         L 65 100 L 65 20 L 100 20
         L 100 0 L 0 0"></path></g></g></g><g transform="translate(500,0)"><g transform="translate(0,0)"><g transform="scale(1,2)"><path fill="#0000ffff" d="M 100 28 C 100 -13 0 -13 0 50
         C 0 113 100 113 100 72 L 75 72
         C 75 90 30 90 30 50 C 30 10 75 10 75 28
         L 100 28"></path></g></g></g><g transform="translate(600,0)"><g transform="translate(0,0)"><g transform="scale(1,2)"><path fill="#0000ffff" d="M 100 28 C 100 -13 0 -13 0 50
         C 0 113 100 113 100 72 L 75 72
         C 75 90 30 90 30 50 C 30 10 75 10 75 28
         L 100 28"></path></g></g></g><g transform="translate(700,0)"><g transform="translate(0,0)"><g transform="scale(1,2)"><path fill="#228b22ff" d="M 0 0 L 0 20 L 35 20 L 35 100
         L 65 100 L 65 20 L 100 20
         L 100 0 L 0 0"></path></g></g></g></g><text y="150" x="260" text-anchor="end" style="font-size: 50px;">PWM</text><text y="350" x="260" text-anchor="end" style="font-size: 50px;">reference</text></svg>
